<svg width="1638" height="941" viewBox="0 0 1638 941" fill="none" xmlns="http://www.w3.org/2000/svg">
<rect width="1638" height="923" fill="#FFF4DF"/>
<path d="M803.507 102.4L1301.72 102.4L793.37 922.721L295.162 922.721L803.507 102.4Z" fill="url(#paint0_linear_3402_403)"/>
<path d="M1300.46 102.4H1507.33L999.65 922.721H792.781L1300.46 102.4Z" fill="url(#paint1_linear_3402_403)"/>
<path d="M1430.41 102.4H1637.61L1129.13 922.721H921.937L1430.41 102.4Z" fill="url(#paint2_linear_3402_403)"/>
<path d="M973.916 908.802L981.003 873.335L957.805 845.448C955.102 842.261 957.101 837.32 961.214 836.856L997.177 832.63L1016.49 802.066C1018.74 798.561 1023.98 798.888 1025.73 802.689L1040.91 835.601L1076 844.515C1080.07 845.552 1081.31 850.673 1078.24 853.507L1051.61 878.028L1054.02 914.131C1054.27 918.335 1049.81 921.076 1046.21 919.06L1014.62 901.321L980.926 914.724C977.027 916.253 972.96 912.896 973.838 908.772L973.916 908.802Z" fill="white" fill-opacity="0.2"/>
<path d="M692.193 914.432L685.697 906.171L675.157 906.03C673.943 906.026 673.229 904.651 673.903 903.655L679.759 894.914L676.655 884.877C676.305 883.718 677.366 882.623 678.536 882.954L688.671 885.815L697.265 879.748C698.262 879.044 699.627 879.737 699.675 880.949L700.062 891.462L708.492 897.745C709.469 898.483 709.233 899.985 708.107 900.4L698.225 904.028L694.824 914.002C694.426 915.152 692.917 915.416 692.172 914.444L692.193 914.432Z" fill="#FF7800" fill-opacity="0.5"/>
<path d="M758.113 911.439L748.187 898.816L732.084 898.601C730.229 898.594 729.138 896.495 730.167 894.973L739.115 881.616L734.372 866.28C733.838 864.51 735.459 862.837 737.247 863.343L752.732 867.714L765.862 858.443C767.386 857.369 769.472 858.428 769.545 860.278L770.137 876.342L783.017 885.942C784.509 887.069 784.148 889.364 782.429 889.998L767.33 895.542L762.133 910.781C761.525 912.538 759.219 912.942 758.08 911.457L758.113 911.439Z" fill="#FF7800" fill-opacity="0.1"/>
<path d="M648.677 102.4L752.021 102.4L244.344 922.721H141L648.677 102.4Z" fill="url(#paint3_linear_3402_403)"/>
<path d="M744.707 239.682L597.859 475.426" stroke="url(#paint4_linear_3402_403)" stroke-width="3" stroke-linecap="round"/>
<path d="M1107.04 110.276L960.196 346.02" stroke="url(#paint5_linear_3402_403)" stroke-width="10" stroke-linecap="round"/>
<path d="M751.458 631.276L604.611 867.02" stroke="url(#paint6_linear_3402_403)" stroke-opacity="0.6" stroke-width="10" stroke-linecap="round"/>
<path d="M664.487 322.51L669.803 314.967L667.271 306.065C666.97 305.043 667.946 304.097 668.953 304.413L677.78 307.141L685.443 302.005C686.33 301.42 687.518 302.037 687.534 303.104L687.676 312.35L694.941 318.053C695.784 318.715 695.544 320.038 694.537 320.383L685.79 323.353L682.625 332.025C682.25 333.032 680.927 333.211 680.295 332.369L674.757 324.968L665.511 324.615C664.444 324.569 663.841 323.366 664.472 322.495L664.487 322.51Z" fill="white" fill-opacity="0.8"/>
<path d="M665.38 356.958L668.332 352.769L666.926 347.826C666.758 347.258 667.301 346.733 667.86 346.908L672.762 348.423L677.017 345.571C677.51 345.246 678.169 345.589 678.178 346.182L678.257 351.316L682.292 354.483C682.76 354.851 682.626 355.585 682.067 355.777L677.21 357.426L675.452 362.242C675.244 362.801 674.509 362.9 674.158 362.433L671.083 358.323L665.949 358.127C665.356 358.101 665.021 357.433 665.372 356.949L665.38 356.958Z" fill="#FF7800" fill-opacity="0.2"/>
<path d="M981.582 366.825L992.558 351.252L987.33 332.872C986.707 330.761 988.723 328.807 990.804 329.46L1009.03 335.092L1024.85 324.488C1026.68 323.279 1029.13 324.554 1029.17 326.758L1029.46 345.848L1044.46 357.623C1046.2 358.99 1045.71 361.722 1043.63 362.434L1025.57 368.566L1019.03 386.471C1018.26 388.551 1015.53 388.921 1014.22 387.182L1002.79 371.901L983.696 371.173C981.492 371.078 980.249 368.594 981.551 366.794L981.582 366.825Z" fill="#FF7800" fill-opacity="0.2"/>
<defs>
<linearGradient id="paint0_linear_3402_403" x1="847.505" y1="102.4" x2="847.505" y2="922.72" gradientUnits="userSpaceOnUse">
<stop stop-color="white" stop-opacity="0"/>
<stop offset="0.495192" stop-color="#FBFF00"/>
</linearGradient>
<linearGradient id="paint1_linear_3402_403" x1="1110.67" y1="102.4" x2="1110.67" y2="922.721" gradientUnits="userSpaceOnUse">
<stop stop-color="white" stop-opacity="0"/>
<stop offset="0.495192" stop-color="#FCAF17"/>
</linearGradient>
<linearGradient id="paint2_linear_3402_403" x1="1240.33" y1="102.4" x2="1240.33" y2="922.721" gradientUnits="userSpaceOnUse">
<stop stop-color="white" stop-opacity="0"/>
<stop offset="0.495192" stop-color="#FF7800"/>
</linearGradient>
<linearGradient id="paint3_linear_3402_403" x1="355.369" y1="102.4" x2="355.369" y2="922.721" gradientUnits="userSpaceOnUse">
<stop stop-color="white" stop-opacity="0"/>
<stop offset="0.495192" stop-color="#FCAF17"/>
</linearGradient>
<linearGradient id="paint4_linear_3402_403" x1="671.283" y1="239.682" x2="671.283" y2="475.426" gradientUnits="userSpaceOnUse">
<stop stop-color="white" stop-opacity="0"/>
<stop offset="1" stop-color="white"/>
</linearGradient>
<linearGradient id="paint5_linear_3402_403" x1="1033.62" y1="110.276" x2="1033.62" y2="346.02" gradientUnits="userSpaceOnUse">
<stop stop-color="white" stop-opacity="0"/>
<stop offset="1" stop-color="white"/>
</linearGradient>
<linearGradient id="paint6_linear_3402_403" x1="678.035" y1="631.276" x2="678.035" y2="867.02" gradientUnits="userSpaceOnUse">
<stop stop-color="white" stop-opacity="0"/>
<stop offset="1" stop-color="white"/>
</linearGradient>
</defs>
</svg>
