<svg width="274" height="146" viewBox="0 0 274 146" fill="none" xmlns="http://www.w3.org/2000/svg">
<path d="M235.323 77.0365L246.6 75.0367L252.172 64.8708C252.828 63.7042 254.467 63.7042 255.09 64.9041L260.433 75.17L271.644 77.4032C272.955 77.6698 273.447 79.2697 272.529 80.2363L264.563 88.569L265.94 100.101C266.104 101.435 264.727 102.401 263.547 101.835L253.287 96.7017L242.928 101.601C241.716 102.168 240.404 101.168 240.568 99.8348L242.207 88.3357L234.438 79.803C233.553 78.8031 234.078 77.2032 235.389 76.9699L235.323 77.0365Z" fill="url(#paint0_linear_3402_248)" fill-opacity="0.4"/>
<path d="M181.747 45.0901L195.88 42.6427L202.881 30.075C203.674 28.6198 205.787 28.6529 206.547 30.1081L213.25 42.8081L227.318 45.5862C228.936 45.917 229.564 47.9013 228.408 49.092L218.402 59.4107L220.119 73.6652C220.317 75.3188 218.6 76.5094 217.114 75.7818L204.235 69.4318L191.224 75.4842C189.705 76.1787 188.054 74.9219 188.285 73.3014L190.333 59.08L180.558 48.5297C179.435 47.306 180.096 45.3216 181.747 45.0571V45.0901Z" fill="url(#paint1_linear_3402_248)" fill-opacity="0.4"/>
<path d="M38.6765 77.0366L27.4001 75.0367L21.8275 64.8708C21.1719 63.7042 19.5329 63.7042 18.9101 64.9041L13.5669 75.17L2.3561 77.4032C1.04489 77.6698 0.553189 79.2697 1.47103 80.2363L9.43661 88.569L8.05985 100.101C7.89595 101.435 9.27271 102.401 10.4528 101.835L20.713 96.7017L31.0715 101.601C32.2844 102.168 33.5956 101.168 33.4317 99.8348L31.7927 88.3357L39.5616 79.803C40.4466 78.8031 39.9222 77.2032 38.611 76.9699L38.6765 77.0366Z" fill="url(#paint2_linear_3402_248)" fill-opacity="0.4"/>
<path d="M92.2532 45.0901L78.1195 42.6427L71.1187 30.075C70.3262 28.6198 68.2127 28.6529 67.4532 30.1081L60.7496 42.8081L46.682 45.5862C45.0639 45.917 44.4364 47.9013 45.5922 49.092L55.5981 59.4107L53.8809 73.6652C53.6828 75.3188 55.4 76.5094 56.886 75.7818L69.7648 69.4318L82.7757 75.4842C84.2948 76.1787 85.9459 74.9219 85.7148 73.3014L83.6673 59.08L93.442 48.5297C94.5648 47.306 93.9044 45.3216 92.2532 45.0571V45.0901Z" fill="url(#paint3_linear_3402_248)" fill-opacity="0.4"/>
<path d="M109.078 19.8193L126.407 16.7875L134.973 1.32874C135.965 -0.470334 138.512 -0.437018 139.471 1.39538L147.672 17.054L164.936 20.4856C166.92 20.8854 167.681 23.3508 166.292 24.8167L154.022 37.5102L156.139 55.1011C156.37 57.1334 154.287 58.6327 152.468 57.7331L136.693 49.9038L120.752 57.3666C118.9 58.2329 116.85 56.7003 117.147 54.668L119.661 37.1437L107.689 24.1504C106.3 22.6511 107.126 20.219 109.144 19.8526L109.078 19.8193Z" fill="url(#paint4_linear_3402_248)" fill-opacity="0.4"/>
<mask id="path-6-outside-1_3402_248" maskUnits="userSpaceOnUse" x="76" y="42" width="121" height="46" fill="black">
<rect fill="white" x="76" y="42" width="121" height="46"/>
<path d="M102.465 74.64H116.305V80.96H81.7452V74.64H95.5852V69.84C87.9852 68.88 83.0652 64.72 83.0652 59.04C83.0652 52.56 89.5052 48.04 99.0252 48.04C108.545 48.04 114.985 52.56 114.985 59.04C114.985 64.72 110.065 68.88 102.465 69.84V74.64ZM90.2252 59.04C90.2252 61.96 93.8252 63.96 99.0252 63.96C104.225 63.96 107.825 61.96 107.825 59.04C107.825 56.08 104.225 54.12 99.0252 54.12C93.8252 54.12 90.2252 56.08 90.2252 59.04ZM129.022 47.8V54.68H153.102V59.72H122.302V47.8H129.022ZM154.782 61.16V66.08H120.222V61.16H154.782ZM152.782 67.52V76.6H128.862V77.88H153.142V82.16H122.262V73H146.182V71.76H122.182V67.52H152.782ZM191.818 48V82.16H185.058V48H191.818ZM170.538 48.24C176.858 48.24 181.418 52.64 181.418 59.32C181.418 66 176.858 70.4 170.538 70.4C164.178 70.4 159.618 66 159.618 59.32C159.618 52.64 164.178 48.24 170.538 48.24ZM170.538 54.28C167.818 54.28 166.138 56.44 166.138 59.32C166.138 62.24 167.818 64.36 170.538 64.36C173.218 64.36 174.938 62.24 174.938 59.32C174.938 56.44 173.218 54.28 170.538 54.28ZM183.098 79.12C180.978 80.08 177.378 80.56 173.978 80.56H158.698V74.24H174.258C177.418 74.24 180.978 73.84 183.098 72.88V79.12Z"/>
</mask>
<path d="M102.465 74.64H116.305V80.96H81.7452V74.64H95.5852V69.84C87.9852 68.88 83.0652 64.72 83.0652 59.04C83.0652 52.56 89.5052 48.04 99.0252 48.04C108.545 48.04 114.985 52.56 114.985 59.04C114.985 64.72 110.065 68.88 102.465 69.84V74.64ZM90.2252 59.04C90.2252 61.96 93.8252 63.96 99.0252 63.96C104.225 63.96 107.825 61.96 107.825 59.04C107.825 56.08 104.225 54.12 99.0252 54.12C93.8252 54.12 90.2252 56.08 90.2252 59.04ZM129.022 47.8V54.68H153.102V59.72H122.302V47.8H129.022ZM154.782 61.16V66.08H120.222V61.16H154.782ZM152.782 67.52V76.6H128.862V77.88H153.142V82.16H122.262V73H146.182V71.76H122.182V67.52H152.782ZM191.818 48V82.16H185.058V48H191.818ZM170.538 48.24C176.858 48.24 181.418 52.64 181.418 59.32C181.418 66 176.858 70.4 170.538 70.4C164.178 70.4 159.618 66 159.618 59.32C159.618 52.64 164.178 48.24 170.538 48.24ZM170.538 54.28C167.818 54.28 166.138 56.44 166.138 59.32C166.138 62.24 167.818 64.36 170.538 64.36C173.218 64.36 174.938 62.24 174.938 59.32C174.938 56.44 173.218 54.28 170.538 54.28ZM183.098 79.12C180.978 80.08 177.378 80.56 173.978 80.56H158.698V74.24H174.258C177.418 74.24 180.978 73.84 183.098 72.88V79.12Z" fill="#FF7800"/>
<path d="M102.465 74.64H97.4652V79.64H102.465V74.64ZM116.305 74.64H121.305V69.64H116.305V74.64ZM116.305 80.96V85.96H121.305V80.96H116.305ZM81.7452 80.96H76.7452V85.96H81.7452V80.96ZM81.7452 74.64V69.64H76.7452V74.64H81.7452ZM95.5852 74.64V79.64H100.585V74.64H95.5852ZM95.5852 69.84H100.585V65.4318L96.2118 64.8794L95.5852 69.84ZM102.465 69.84L101.839 64.8794L97.4652 65.4318V69.84H102.465ZM102.465 74.64V79.64H116.305V74.64V69.64H102.465V74.64ZM116.305 74.64H111.305V80.96H116.305H121.305V74.64H116.305ZM116.305 80.96V75.96H81.7452V80.96V85.96H116.305V80.96ZM81.7452 80.96H86.7452V74.64H81.7452H76.7452V80.96H81.7452ZM81.7452 74.64V79.64H95.5852V74.64V69.64H81.7452V74.64ZM95.5852 74.64H100.585V69.84H95.5852H90.5852V74.64H95.5852ZM95.5852 69.84L96.2118 64.8794C89.7907 64.0683 88.0652 61.0651 88.0652 59.04H83.0652H78.0652C78.0652 68.3749 86.1796 73.6917 94.9586 74.8006L95.5852 69.84ZM83.0652 59.04H88.0652C88.0652 57.6653 88.6745 56.3619 90.3227 55.2199C92.0764 54.0049 94.9935 53.04 99.0252 53.04V48.04V43.04C93.5368 43.04 88.4739 44.3351 84.6276 47.0001C80.6758 49.7381 78.0652 53.9347 78.0652 59.04H83.0652ZM99.0252 48.04V53.04C103.057 53.04 105.974 54.0049 107.728 55.2199C109.376 56.3619 109.985 57.6653 109.985 59.04H114.985H119.985C119.985 53.9347 117.374 49.7381 113.423 47.0001C109.576 44.3351 104.514 43.04 99.0252 43.04V48.04ZM114.985 59.04H109.985C109.985 61.0651 108.26 64.0683 101.839 64.8794L102.465 69.84L103.092 74.8006C111.871 73.6917 119.985 68.3749 119.985 59.04H114.985ZM102.465 69.84H97.4652V74.64H102.465H107.465V69.84H102.465ZM90.2252 59.04H85.2252C85.2252 62.8875 87.6815 65.5341 90.2386 66.9611C92.7541 68.365 95.8668 68.96 99.0252 68.96V63.96V58.96C96.9835 58.96 95.6962 58.555 95.1117 58.2289C94.8404 58.0774 94.859 58.0218 94.9649 58.173C95.0986 58.3641 95.2252 58.6832 95.2252 59.04H90.2252ZM99.0252 63.96V68.96C102.184 68.96 105.296 68.365 107.812 66.9611C110.369 65.5341 112.825 62.8875 112.825 59.04H107.825H102.825C102.825 58.6832 102.952 58.3641 103.085 58.173C103.191 58.0218 103.21 58.0774 102.939 58.2289C102.354 58.555 101.067 58.96 99.0252 58.96V63.96ZM107.825 59.04H112.825C112.825 55.1856 110.384 52.5309 107.801 51.0979C105.28 49.6991 102.167 49.12 99.0252 49.12V54.12V59.12C101.083 59.12 102.37 59.5209 102.949 59.8421C103.216 59.99 103.191 60.041 103.081 59.8841C102.943 59.6864 102.825 59.373 102.825 59.04H107.825ZM99.0252 54.12V49.12C95.8834 49.12 92.7703 49.6991 90.2493 51.0979C87.6666 52.5309 85.2252 55.1856 85.2252 59.04H90.2252H95.2252C95.2252 59.373 95.107 59.6864 94.9691 59.8841C94.8596 60.041 94.8345 59.99 95.101 59.8421C95.68 59.5209 96.9669 59.12 99.0252 59.12V54.12ZM129.022 47.8H134.022V42.8H129.022V47.8ZM129.022 54.68H124.022V59.68H129.022V54.68ZM153.102 54.68H158.102V49.68H153.102V54.68ZM153.102 59.72V64.72H158.102V59.72H153.102ZM122.302 59.72H117.302V64.72H122.302V59.72ZM122.302 47.8V42.8H117.302V47.8H122.302ZM154.782 61.16H159.782V56.16H154.782V61.16ZM154.782 66.08V71.08H159.782V66.08H154.782ZM120.222 66.08H115.222V71.08H120.222V66.08ZM120.222 61.16V56.16H115.222V61.16H120.222ZM152.782 67.52H157.782V62.52H152.782V67.52ZM152.782 76.6V81.6H157.782V76.6H152.782ZM128.862 76.6V71.6H123.862V76.6H128.862ZM128.862 77.88H123.862V82.88H128.862V77.88ZM153.142 77.88H158.142V72.88H153.142V77.88ZM153.142 82.16V87.16H158.142V82.16H153.142ZM122.262 82.16H117.262V87.16H122.262V82.16ZM122.262 73V68H117.262V73H122.262ZM146.182 73V78H151.182V73H146.182ZM146.182 71.76H151.182V66.76H146.182V71.76ZM122.182 71.76H117.182V76.76H122.182V71.76ZM122.182 67.52V62.52H117.182V67.52H122.182ZM129.022 47.8H124.022V54.68H129.022H134.022V47.8H129.022ZM129.022 54.68V59.68H153.102V54.68V49.68H129.022V54.68ZM153.102 54.68H148.102V59.72H153.102H158.102V54.68H153.102ZM153.102 59.72V54.72H122.302V59.72V64.72H153.102V59.72ZM122.302 59.72H127.302V47.8H122.302H117.302V59.72H122.302ZM122.302 47.8V52.8H129.022V47.8V42.8H122.302V47.8ZM154.782 61.16H149.782V66.08H154.782H159.782V61.16H154.782ZM154.782 66.08V61.08H120.222V66.08V71.08H154.782V66.08ZM120.222 66.08H125.222V61.16H120.222H115.222V66.08H120.222ZM120.222 61.16V66.16H154.782V61.16V56.16H120.222V61.16ZM152.782 67.52H147.782V76.6H152.782H157.782V67.52H152.782ZM152.782 76.6V71.6H128.862V76.6V81.6H152.782V76.6ZM128.862 76.6H123.862V77.88H128.862H133.862V76.6H128.862ZM128.862 77.88V82.88H153.142V77.88V72.88H128.862V77.88ZM153.142 77.88H148.142V82.16H153.142H158.142V77.88H153.142ZM153.142 82.16V77.16H122.262V82.16V87.16H153.142V82.16ZM122.262 82.16H127.262V73H122.262H117.262V82.16H122.262ZM122.262 73V78H146.182V73V68H122.262V73ZM146.182 73H151.182V71.76H146.182H141.182V73H146.182ZM146.182 71.76V66.76H122.182V71.76V76.76H146.182V71.76ZM122.182 71.76H127.182V67.52H122.182H117.182V71.76H122.182ZM122.182 67.52V72.52H152.782V67.52V62.52H122.182V67.52ZM191.818 48H196.818V43H191.818V48ZM191.818 82.16V87.16H196.818V82.16H191.818ZM185.058 82.16H180.058V87.16H185.058V82.16ZM185.058 48V43H180.058V48H185.058ZM183.098 79.12L185.161 83.6748L188.098 82.3446V79.12H183.098ZM158.698 80.56H153.698V85.56H158.698V80.56ZM158.698 74.24V69.24H153.698V74.24H158.698ZM183.098 72.88H188.098V65.1271L181.036 68.3252L183.098 72.88ZM191.818 48H186.818V82.16H191.818H196.818V48H191.818ZM191.818 82.16V77.16H185.058V82.16V87.16H191.818V82.16ZM185.058 82.16H190.058V48H185.058H180.058V82.16H185.058ZM185.058 48V53H191.818V48V43H185.058V48ZM170.538 48.24V53.24C172.511 53.24 173.912 53.9071 174.808 54.806C175.7 55.7 176.418 57.1498 176.418 59.32H181.418H186.418C186.418 54.8102 184.857 50.72 181.888 47.744C178.925 44.7729 174.885 43.24 170.538 43.24V48.24ZM181.418 59.32H176.418C176.418 61.4902 175.7 62.94 174.808 63.834C173.912 64.7329 172.511 65.4 170.538 65.4V70.4V75.4C174.885 75.4 178.925 73.8671 181.888 70.896C184.857 67.92 186.418 63.8298 186.418 59.32H181.418ZM170.538 70.4V65.4C168.537 65.4 167.127 64.7274 166.229 63.8295C165.336 62.9369 164.618 61.4898 164.618 59.32H159.618H154.618C154.618 63.8302 156.18 67.9231 159.158 70.9005C162.13 73.8726 166.18 75.4 170.538 75.4V70.4ZM159.618 59.32H164.618C164.618 57.1502 165.336 55.7031 166.229 54.8105C167.127 53.9126 168.537 53.24 170.538 53.24V48.24V43.24C166.18 43.24 162.13 44.7674 159.158 47.7395C156.18 50.7169 154.618 54.8098 154.618 59.32H159.618ZM170.538 54.28V49.28C167.743 49.28 165.232 50.4411 163.498 52.4941C161.834 54.4652 161.138 56.9407 161.138 59.32H166.138H171.138C171.138 58.8193 171.283 58.7748 171.138 58.9459C171.062 59.0363 170.941 59.137 170.787 59.2078C170.632 59.2787 170.531 59.28 170.538 59.28V54.28ZM166.138 59.32H161.138C161.138 61.7062 161.827 64.1928 163.507 66.1714C165.257 68.2319 167.773 69.36 170.538 69.36V64.36V59.36C170.517 59.36 170.611 59.3584 170.765 59.4279C170.92 59.4979 171.046 59.6005 171.13 59.6986C171.29 59.8872 171.138 59.8538 171.138 59.32H166.138ZM170.538 64.36V69.36C173.3 69.36 175.803 68.2206 177.544 66.1837C179.224 64.2185 179.938 61.7349 179.938 59.32H174.938H169.938C169.938 59.8251 169.793 59.8615 169.943 59.6863C170.019 59.5963 170.139 59.4988 170.289 59.4306C170.439 59.3624 170.539 59.36 170.538 59.36V64.36ZM174.938 59.32H179.938C179.938 56.912 179.217 54.4393 177.553 52.4818C175.828 50.4526 173.33 49.28 170.538 49.28V54.28V59.28C170.525 59.28 170.418 59.2746 170.267 59.2051C170.117 59.1361 170.004 59.0406 169.934 58.9582C169.8 58.8007 169.938 58.848 169.938 59.32H174.938ZM183.098 79.12L181.036 74.5652C179.897 75.0809 177.157 75.56 173.978 75.56V80.56V85.56C177.599 85.56 182.06 85.0791 185.161 83.6748L183.098 79.12ZM173.978 80.56V75.56H158.698V80.56V85.56H173.978V80.56ZM158.698 80.56H163.698V74.24H158.698H153.698V80.56H158.698ZM158.698 74.24V79.24H174.258V74.24V69.24H158.698V74.24ZM174.258 74.24V79.24C177.561 79.24 182.022 78.8561 185.161 77.4348L183.098 72.88L181.036 68.3252C179.935 68.8239 177.276 69.24 174.258 69.24V74.24ZM183.098 72.88H178.098V79.12H183.098H188.098V72.88H183.098Z" fill="white" mask="url(#path-6-outside-1_3402_248)"/>
<mask id="path-8-outside-2_3402_248" maskUnits="userSpaceOnUse" x="0" y="95" width="275" height="46" fill="black">
<rect fill="white" y="95" width="275" height="46"/>
<path d="M17.3319 117.4C14.7319 120.72 10.6919 122.92 5.73188 123V116.96C9.69188 116.72 12.5319 113.84 13.4519 110.08H6.45188V104H13.5719V100.56H20.4519V104H27.5719V110.08H20.4119C20.3319 110.8 20.1719 111.48 19.9719 112.16L29.2519 118.04L25.6119 122.96L17.3319 117.4ZM31.4919 101H38.2519V135.16H31.4919V101ZM20.2519 127.36H20.6919C23.8519 127.36 27.4119 126.96 29.5319 126V132.2C27.4119 133.16 23.9719 133.56 20.5719 133.56H5.13188V127.36H13.5319V122.28H20.2519V127.36ZM69.2484 124.32V108.08H45.4084V101.8H76.2884V124.32H69.2484ZM61.7284 127.64H78.1684V133.96H43.6084V127.64H54.7284V114.28H61.7284V127.64ZM126.336 101V135.16H119.576V101H126.336ZM114.616 101.8V120.6H101.536V127.48H108.936C112.176 127.48 115.696 126.8 117.776 125.84V131.92C115.696 132.96 112.056 133.56 108.656 133.56H94.8159V114.6H107.896V107.88H94.7359V101.8H114.616ZM164.333 101.4V119.2H133.773V101.4H140.372V104.44H157.733V101.4H164.333ZM140.372 113.32H157.733V110.24H140.372V113.32ZM166.333 121.84V127.96H159.093V135.96H152.333V127.96H145.773V135.96H139.013V127.96H131.773V121.84H166.333ZM196.689 101H203.449V135.16H196.689V120.2H192.169C191.569 129.68 187.569 133.96 181.689 133.96C175.329 133.96 171.089 128.92 171.089 117.68C171.089 106.44 175.329 101.4 181.689 101.4C187.289 101.4 191.209 105.28 192.089 113.88H196.689V101ZM181.689 127.76C183.889 127.76 185.569 125.36 185.569 117.68C185.569 110.04 183.889 107.6 181.689 107.6C179.449 107.6 177.769 110.04 177.769 117.68C177.769 125.36 179.449 127.76 181.689 127.76ZM217.606 100.8V109.08H241.526V114.68H210.806V100.8H217.606ZM243.286 117.04V122.68H208.726V117.04H243.286ZM217.606 124.56V129.52H241.686V135.16H210.726V124.56H217.606ZM254.522 123.8C254.522 119.84 255.602 117.64 258.522 115.44C260.882 113.64 262.162 112.44 262.162 110.52C262.162 108.52 260.722 107.28 258.202 107.28C255.522 107.28 254.082 109.16 254.082 111.2H247.122C247.122 105.44 251.682 101.12 258.162 101.12C265.082 101.12 269.002 105.08 269.002 110.52C269.002 113.48 267.562 115.84 264.962 117.84C262.042 120.12 261.122 121.56 261.122 123.8H254.522ZM258.042 135.16C255.602 135.16 253.802 133.4 253.802 130.96C253.802 128.52 255.602 126.72 258.042 126.72C260.482 126.72 262.282 128.52 262.282 130.96C262.282 133.4 260.482 135.16 258.042 135.16Z"/>
</mask>
<path d="M17.3319 117.4C14.7319 120.72 10.6919 122.92 5.73188 123V116.96C9.69188 116.72 12.5319 113.84 13.4519 110.08H6.45188V104H13.5719V100.56H20.4519V104H27.5719V110.08H20.4119C20.3319 110.8 20.1719 111.48 19.9719 112.16L29.2519 118.04L25.6119 122.96L17.3319 117.4ZM31.4919 101H38.2519V135.16H31.4919V101ZM20.2519 127.36H20.6919C23.8519 127.36 27.4119 126.96 29.5319 126V132.2C27.4119 133.16 23.9719 133.56 20.5719 133.56H5.13188V127.36H13.5319V122.28H20.2519V127.36ZM69.2484 124.32V108.08H45.4084V101.8H76.2884V124.32H69.2484ZM61.7284 127.64H78.1684V133.96H43.6084V127.64H54.7284V114.28H61.7284V127.64ZM126.336 101V135.16H119.576V101H126.336ZM114.616 101.8V120.6H101.536V127.48H108.936C112.176 127.48 115.696 126.8 117.776 125.84V131.92C115.696 132.96 112.056 133.56 108.656 133.56H94.8159V114.6H107.896V107.88H94.7359V101.8H114.616ZM164.333 101.4V119.2H133.773V101.4H140.372V104.44H157.733V101.4H164.333ZM140.372 113.32H157.733V110.24H140.372V113.32ZM166.333 121.84V127.96H159.093V135.96H152.333V127.96H145.773V135.96H139.013V127.96H131.773V121.84H166.333ZM196.689 101H203.449V135.16H196.689V120.2H192.169C191.569 129.68 187.569 133.96 181.689 133.96C175.329 133.96 171.089 128.92 171.089 117.68C171.089 106.44 175.329 101.4 181.689 101.4C187.289 101.4 191.209 105.28 192.089 113.88H196.689V101ZM181.689 127.76C183.889 127.76 185.569 125.36 185.569 117.68C185.569 110.04 183.889 107.6 181.689 107.6C179.449 107.6 177.769 110.04 177.769 117.68C177.769 125.36 179.449 127.76 181.689 127.76ZM217.606 100.8V109.08H241.526V114.68H210.806V100.8H217.606ZM243.286 117.04V122.68H208.726V117.04H243.286ZM217.606 124.56V129.52H241.686V135.16H210.726V124.56H217.606ZM254.522 123.8C254.522 119.84 255.602 117.64 258.522 115.44C260.882 113.64 262.162 112.44 262.162 110.52C262.162 108.52 260.722 107.28 258.202 107.28C255.522 107.28 254.082 109.16 254.082 111.2H247.122C247.122 105.44 251.682 101.12 258.162 101.12C265.082 101.12 269.002 105.08 269.002 110.52C269.002 113.48 267.562 115.84 264.962 117.84C262.042 120.12 261.122 121.56 261.122 123.8H254.522ZM258.042 135.16C255.602 135.16 253.802 133.4 253.802 130.96C253.802 128.52 255.602 126.72 258.042 126.72C260.482 126.72 262.282 128.52 262.282 130.96C262.282 133.4 260.482 135.16 258.042 135.16Z" fill="#FF7800"/>
<path d="M17.3319 117.4L20.1192 113.249L16.2609 110.658L13.3954 114.317L17.3319 117.4ZM5.73188 123H0.731875V128.081L5.81251 127.999L5.73188 123ZM5.73188 116.96L5.4294 111.969L0.731875 112.254V116.96H5.73188ZM13.4519 110.08L18.3086 111.268L19.8228 105.08H13.4519V110.08ZM6.45188 110.08H1.45188V115.08H6.45188V110.08ZM6.45188 104V99H1.45188V104H6.45188ZM13.5719 104V109H18.5719V104H13.5719ZM13.5719 100.56V95.56H8.57188V100.56H13.5719ZM20.4519 100.56H25.4519V95.56H20.4519V100.56ZM20.4519 104H15.4519V109H20.4519V104ZM27.5719 104H32.5719V99H27.5719V104ZM27.5719 110.08V115.08H32.5719V110.08H27.5719ZM20.4119 110.08V105.08H15.9367L15.4425 109.528L20.4119 110.08ZM19.9719 112.16L15.175 110.749L14.1113 114.366L17.2957 116.384L19.9719 112.16ZM29.2519 118.04L33.2714 121.014L36.468 116.693L31.928 113.816L29.2519 118.04ZM25.6119 122.96L22.8245 127.111L26.7903 129.774L29.6314 125.934L25.6119 122.96ZM31.4919 101V96H26.4919V101H31.4919ZM38.2519 101H43.2519V96H38.2519V101ZM38.2519 135.16V140.16H43.2519V135.16H38.2519ZM31.4919 135.16H26.4919V140.16H31.4919V135.16ZM20.2519 127.36H15.2519V132.36H20.2519V127.36ZM29.5319 126H34.5319V118.247L27.4693 121.445L29.5319 126ZM29.5319 132.2L31.5944 136.755L34.5319 135.425V132.2H29.5319ZM5.13188 133.56H0.131875V138.56H5.13188V133.56ZM5.13188 127.36V122.36H0.131875V127.36H5.13188ZM13.5319 127.36V132.36H18.5319V127.36H13.5319ZM13.5319 122.28V117.28H8.53188V122.28H13.5319ZM20.2519 122.28H25.2519V117.28H20.2519V122.28ZM17.3319 117.4L13.3954 114.317C11.7195 116.457 9.09267 117.945 5.65124 118.001L5.73188 123L5.81251 127.999C12.2911 127.895 17.7443 124.983 21.2684 120.483L17.3319 117.4ZM5.73188 123H10.7319V116.96H5.73188H0.731875V123H5.73188ZM5.73188 116.96L6.03435 121.951C12.5836 121.554 16.9703 116.738 18.3086 111.268L13.4519 110.08L8.59514 108.892C8.09347 110.942 6.80012 111.886 5.4294 111.969L5.73188 116.96ZM13.4519 110.08V105.08H6.45188V110.08V115.08H13.4519V110.08ZM6.45188 110.08H11.4519V104H6.45188H1.45188V110.08H6.45188ZM6.45188 104V109H13.5719V104V99H6.45188V104ZM13.5719 104H18.5719V100.56H13.5719H8.57188V104H13.5719ZM13.5719 100.56V105.56H20.4519V100.56V95.56H13.5719V100.56ZM20.4519 100.56H15.4519V104H20.4519H25.4519V100.56H20.4519ZM20.4519 104V109H27.5719V104V99H20.4519V104ZM27.5719 104H22.5719V110.08H27.5719H32.5719V104H27.5719ZM27.5719 110.08V105.08H20.4119V110.08V115.08H27.5719V110.08ZM20.4119 110.08L15.4425 109.528C15.4053 109.862 15.3248 110.24 15.175 110.749L19.9719 112.16L24.7687 113.571C25.0189 112.72 25.2584 111.738 25.3813 110.632L20.4119 110.08ZM19.9719 112.16L17.2957 116.384L26.5757 122.264L29.2519 118.04L31.928 113.816L22.648 107.936L19.9719 112.16ZM29.2519 118.04L25.2324 115.066L21.5924 119.986L25.6119 122.96L29.6314 125.934L33.2714 121.014L29.2519 118.04ZM25.6119 122.96L28.3992 118.809L20.1192 113.249L17.3319 117.4L14.5445 121.551L22.8245 127.111L25.6119 122.96ZM31.4919 101V106H38.2519V101V96H31.4919V101ZM38.2519 101H33.2519V135.16H38.2519H43.2519V101H38.2519ZM38.2519 135.16V130.16H31.4919V135.16V140.16H38.2519V135.16ZM31.4919 135.16H36.4919V101H31.4919H26.4919V135.16H31.4919ZM20.2519 127.36V132.36H20.6919V127.36V122.36H20.2519V127.36ZM20.6919 127.36V132.36C23.9943 132.36 28.4556 131.976 31.5944 130.555L29.5319 126L27.4693 121.445C26.3681 121.944 23.7095 122.36 20.6919 122.36V127.36ZM29.5319 126H24.5319V132.2H29.5319H34.5319V126H29.5319ZM29.5319 132.2L27.4693 127.645C26.3681 128.144 23.8295 128.56 20.5719 128.56V133.56V138.56C24.1143 138.56 28.4556 138.176 31.5944 136.755L29.5319 132.2ZM20.5719 133.56V128.56H5.13188V133.56V138.56H20.5719V133.56ZM5.13188 133.56H10.1319V127.36H5.13188H0.131875V133.56H5.13188ZM5.13188 127.36V132.36H13.5319V127.36V122.36H5.13188V127.36ZM13.5319 127.36H18.5319V122.28H13.5319H8.53188V127.36H13.5319ZM13.5319 122.28V127.28H20.2519V122.28V117.28H13.5319V122.28ZM20.2519 122.28H15.2519V127.36H20.2519H25.2519V122.28H20.2519ZM69.2484 124.32H64.2484V129.32H69.2484V124.32ZM69.2484 108.08H74.2484V103.08H69.2484V108.08ZM45.4084 108.08H40.4084V113.08H45.4084V108.08ZM45.4084 101.8V96.8H40.4084V101.8H45.4084ZM76.2884 101.8H81.2884V96.8H76.2884V101.8ZM76.2884 124.32V129.32H81.2884V124.32H76.2884ZM61.7284 127.64H56.7284V132.64H61.7284V127.64ZM78.1684 127.64H83.1684V122.64H78.1684V127.64ZM78.1684 133.96V138.96H83.1684V133.96H78.1684ZM43.6084 133.96H38.6084V138.96H43.6084V133.96ZM43.6084 127.64V122.64H38.6084V127.64H43.6084ZM54.7284 127.64V132.64H59.7284V127.64H54.7284ZM54.7284 114.28V109.28H49.7284V114.28H54.7284ZM61.7284 114.28H66.7284V109.28H61.7284V114.28ZM69.2484 124.32H74.2484V108.08H69.2484H64.2484V124.32H69.2484ZM69.2484 108.08V103.08H45.4084V108.08V113.08H69.2484V108.08ZM45.4084 108.08H50.4084V101.8H45.4084H40.4084V108.08H45.4084ZM45.4084 101.8V106.8H76.2884V101.8V96.8H45.4084V101.8ZM76.2884 101.8H71.2884V124.32H76.2884H81.2884V101.8H76.2884ZM76.2884 124.32V119.32H69.2484V124.32V129.32H76.2884V124.32ZM61.7284 127.64V132.64H78.1684V127.64V122.64H61.7284V127.64ZM78.1684 127.64H73.1684V133.96H78.1684H83.1684V127.64H78.1684ZM78.1684 133.96V128.96H43.6084V133.96V138.96H78.1684V133.96ZM43.6084 133.96H48.6084V127.64H43.6084H38.6084V133.96H43.6084ZM43.6084 127.64V132.64H54.7284V127.64V122.64H43.6084V127.64ZM54.7284 127.64H59.7284V114.28H54.7284H49.7284V127.64H54.7284ZM54.7284 114.28V119.28H61.7284V114.28V109.28H54.7284V114.28ZM61.7284 114.28H56.7284V127.64H61.7284H66.7284V114.28H61.7284ZM126.336 101H131.336V96H126.336V101ZM126.336 135.16V140.16H131.336V135.16H126.336ZM119.576 135.16H114.576V140.16H119.576V135.16ZM119.576 101V96H114.576V101H119.576ZM114.616 101.8H119.616V96.8H114.616V101.8ZM114.616 120.6V125.6H119.616V120.6H114.616ZM101.536 120.6V115.6H96.5359V120.6H101.536ZM101.536 127.48H96.5359V132.48H101.536V127.48ZM117.776 125.84H122.776V118.025L115.681 121.3L117.776 125.84ZM117.776 131.92L120.012 136.392L122.776 135.01V131.92H117.776ZM94.8159 133.56H89.8159V138.56H94.8159V133.56ZM94.8159 114.6V109.6H89.8159V114.6H94.8159ZM107.896 114.6V119.6H112.896V114.6H107.896ZM107.896 107.88H112.896V102.88H107.896V107.88ZM94.7359 107.88H89.7359V112.88H94.7359V107.88ZM94.7359 101.8V96.8H89.7359V101.8H94.7359ZM126.336 101H121.336V135.16H126.336H131.336V101H126.336ZM126.336 135.16V130.16H119.576V135.16V140.16H126.336V135.16ZM119.576 135.16H124.576V101H119.576H114.576V135.16H119.576ZM119.576 101V106H126.336V101V96H119.576V101ZM114.616 101.8H109.616V120.6H114.616H119.616V101.8H114.616ZM114.616 120.6V115.6H101.536V120.6V125.6H114.616V120.6ZM101.536 120.6H96.5359V127.48H101.536H106.536V120.6H101.536ZM101.536 127.48V132.48H108.936V127.48V122.48H101.536V127.48ZM108.936 127.48V132.48C112.676 132.48 116.958 131.725 119.871 130.38L117.776 125.84L115.681 121.3C114.434 121.875 111.676 122.48 108.936 122.48V127.48ZM117.776 125.84H112.776V131.92H117.776H122.776V125.84H117.776ZM117.776 131.92L115.54 127.448C114.466 127.985 111.726 128.56 108.656 128.56V133.56V138.56C112.386 138.56 116.926 137.935 120.012 136.392L117.776 131.92ZM108.656 133.56V128.56H94.8159V133.56V138.56H108.656V133.56ZM94.8159 133.56H99.8159V114.6H94.8159H89.8159V133.56H94.8159ZM94.8159 114.6V119.6H107.896V114.6V109.6H94.8159V114.6ZM107.896 114.6H112.896V107.88H107.896H102.896V114.6H107.896ZM107.896 107.88V102.88H94.7359V107.88V112.88H107.896V107.88ZM94.7359 107.88H99.7359V101.8H94.7359H89.7359V107.88H94.7359ZM94.7359 101.8V106.8H114.616V101.8V96.8H94.7359V101.8ZM164.333 101.4H169.333V96.4H164.333V101.4ZM164.333 119.2V124.2H169.333V119.2H164.333ZM133.773 119.2H128.772V124.2H133.773V119.2ZM133.773 101.4V96.4H128.772V101.4H133.773ZM140.372 101.4H145.372V96.4H140.372V101.4ZM140.372 104.44H135.372V109.44H140.372V104.44ZM157.732 104.44V109.44H162.732V104.44H157.732ZM157.732 101.4V96.4H152.732V101.4H157.732ZM140.372 113.32H135.372V118.32H140.372V113.32ZM157.732 113.32V118.32H162.732V113.32H157.732ZM157.732 110.24H162.732V105.24H157.732V110.24ZM140.372 110.24V105.24H135.372V110.24H140.372ZM166.333 121.84H171.333V116.84H166.333V121.84ZM166.333 127.96V132.96H171.333V127.96H166.333ZM159.092 127.96V122.96H154.092V127.96H159.092ZM159.092 135.96V140.96H164.092V135.96H159.092ZM152.333 135.96H147.333V140.96H152.333V135.96ZM152.333 127.96H157.333V122.96H152.333V127.96ZM145.773 127.96V122.96H140.773V127.96H145.773ZM145.773 135.96V140.96H150.773V135.96H145.773ZM139.012 135.96H134.012V140.96H139.012V135.96ZM139.012 127.96H144.012V122.96H139.012V127.96ZM131.773 127.96H126.772V132.96H131.773V127.96ZM131.773 121.84V116.84H126.772V121.84H131.773ZM164.333 101.4H159.333V119.2H164.333H169.333V101.4H164.333ZM164.333 119.2V114.2H133.773V119.2V124.2H164.333V119.2ZM133.773 119.2H138.773V101.4H133.773H128.772V119.2H133.773ZM133.773 101.4V106.4H140.372V101.4V96.4H133.773V101.4ZM140.372 101.4H135.372V104.44H140.372H145.372V101.4H140.372ZM140.372 104.44V109.44H157.732V104.44V99.44H140.372V104.44ZM157.732 104.44H162.732V101.4H157.732H152.732V104.44H157.732ZM157.732 101.4V106.4H164.333V101.4V96.4H157.732V101.4ZM140.372 113.32V118.32H157.732V113.32V108.32H140.372V113.32ZM157.732 113.32H162.732V110.24H157.732H152.732V113.32H157.732ZM157.732 110.24V105.24H140.372V110.24V115.24H157.732V110.24ZM140.372 110.24H135.372V113.32H140.372H145.372V110.24H140.372ZM166.333 121.84H161.333V127.96H166.333H171.333V121.84H166.333ZM166.333 127.96V122.96H159.092V127.96V132.96H166.333V127.96ZM159.092 127.96H154.092V135.96H159.092H164.092V127.96H159.092ZM159.092 135.96V130.96H152.333V135.96V140.96H159.092V135.96ZM152.333 135.96H157.333V127.96H152.333H147.333V135.96H152.333ZM152.333 127.96V122.96H145.773V127.96V132.96H152.333V127.96ZM145.773 127.96H140.773V135.96H145.773H150.773V127.96H145.773ZM145.773 135.96V130.96H139.012V135.96V140.96H145.773V135.96ZM139.012 135.96H144.012V127.96H139.012H134.012V135.96H139.012ZM139.012 127.96V122.96H131.773V127.96V132.96H139.012V127.96ZM131.773 127.96H136.773V121.84H131.773H126.772V127.96H131.773ZM131.773 121.84V126.84H166.333V121.84V116.84H131.773V121.84ZM196.689 101V96H191.689V101H196.689ZM203.449 101H208.449V96H203.449V101ZM203.449 135.16V140.16H208.449V135.16H203.449ZM196.689 135.16H191.689V140.16H196.689V135.16ZM196.689 120.2H201.689V115.2H196.689V120.2ZM192.169 120.2V115.2H187.476L187.179 119.884L192.169 120.2ZM192.089 113.88L187.115 114.389L187.575 118.88H192.089V113.88ZM196.689 113.88V118.88H201.689V113.88H196.689ZM196.689 101V106H203.449V101V96H196.689V101ZM203.449 101H198.449V135.16H203.449H208.449V101H203.449ZM203.449 135.16V130.16H196.689V135.16V140.16H203.449V135.16ZM196.689 135.16H201.689V120.2H196.689H191.689V135.16H196.689ZM196.689 120.2V115.2H192.169V120.2V125.2H196.689V120.2ZM192.169 120.2L187.179 119.884C186.914 124.071 185.93 126.358 185.01 127.505C184.246 128.457 183.275 128.96 181.689 128.96V133.96V138.96C185.983 138.96 189.952 137.323 192.808 133.765C195.508 130.402 196.824 125.809 197.159 120.516L192.169 120.2ZM181.689 133.96V128.96C180.02 128.96 178.959 128.401 178.108 127.179C177.074 125.693 176.089 122.793 176.089 117.68H171.089H166.089C166.089 123.807 167.224 129.047 169.9 132.891C172.759 136.999 176.998 138.96 181.689 138.96V133.96ZM171.089 117.68H176.089C176.089 112.567 177.074 109.667 178.108 108.181C178.959 106.959 180.02 106.4 181.689 106.4V101.4V96.4C176.998 96.4 172.759 98.3612 169.9 102.469C167.224 106.313 166.089 111.553 166.089 117.68H171.089ZM181.689 101.4V106.4C183.22 106.4 184.164 106.871 184.897 107.708C185.761 108.696 186.736 110.68 187.115 114.389L192.089 113.88L197.063 113.371C196.563 108.48 195.137 104.224 192.421 101.122C189.574 97.8686 185.758 96.4 181.689 96.4V101.4ZM192.089 113.88V118.88H196.689V113.88V108.88H192.089V113.88ZM196.689 113.88H201.689V101H196.689H191.689V113.88H196.689ZM181.689 127.76V132.76C183.211 132.76 184.792 132.323 186.195 131.286C187.539 130.293 188.428 128.967 189.021 127.635C190.151 125.098 190.569 121.723 190.569 117.68H185.569H180.569C180.569 121.317 180.147 122.982 179.887 123.565C179.785 123.793 179.842 123.547 180.252 123.244C180.721 122.897 181.267 122.76 181.689 122.76V127.76ZM185.569 117.68H190.569C190.569 113.652 190.15 110.282 189.024 107.746C188.433 106.416 187.549 105.089 186.212 104.092C184.815 103.05 183.229 102.6 181.689 102.6V107.6V112.6C181.249 112.6 180.699 112.455 180.235 112.109C179.831 111.808 179.78 111.569 179.884 111.804C180.148 112.398 180.569 114.068 180.569 117.68H185.569ZM181.689 107.6V102.6C180.159 102.6 178.573 103.039 177.166 104.075C175.817 105.069 174.922 106.398 174.325 107.733C173.187 110.277 172.769 113.655 172.769 117.68H177.769H182.769C182.769 114.065 183.191 112.403 183.453 111.817C183.556 111.587 183.501 111.828 183.097 112.126C182.635 112.466 182.099 112.6 181.689 112.6V107.6ZM177.769 117.68H172.769C172.769 121.72 173.186 125.103 174.327 127.647C174.928 128.985 175.827 130.313 177.183 131.303C178.595 132.334 180.177 132.76 181.689 132.76V127.76V122.76C182.081 122.76 182.614 122.886 183.08 123.227C183.491 123.527 183.55 123.775 183.451 123.553C183.192 122.977 182.769 121.32 182.769 117.68H177.769ZM217.606 100.8H222.606V95.8H217.606V100.8ZM217.606 109.08H212.606V114.08H217.606V109.08ZM241.526 109.08H246.526V104.08H241.526V109.08ZM241.526 114.68V119.68H246.526V114.68H241.526ZM210.806 114.68H205.806V119.68H210.806V114.68ZM210.806 100.8V95.8H205.806V100.8H210.806ZM243.286 117.04H248.286V112.04H243.286V117.04ZM243.286 122.68V127.68H248.286V122.68H243.286ZM208.726 122.68H203.726V127.68H208.726V122.68ZM208.726 117.04V112.04H203.726V117.04H208.726ZM217.606 124.56H222.606V119.56H217.606V124.56ZM217.606 129.52H212.606V134.52H217.606V129.52ZM241.686 129.52H246.686V124.52H241.686V129.52ZM241.686 135.16V140.16H246.686V135.16H241.686ZM210.726 135.16H205.726V140.16H210.726V135.16ZM210.726 124.56V119.56H205.726V124.56H210.726ZM217.606 100.8H212.606V109.08H217.606H222.606V100.8H217.606ZM217.606 109.08V114.08H241.526V109.08V104.08H217.606V109.08ZM241.526 109.08H236.526V114.68H241.526H246.526V109.08H241.526ZM241.526 114.68V109.68H210.806V114.68V119.68H241.526V114.68ZM210.806 114.68H215.806V100.8H210.806H205.806V114.68H210.806ZM210.806 100.8V105.8H217.606V100.8V95.8H210.806V100.8ZM243.286 117.04H238.286V122.68H243.286H248.286V117.04H243.286ZM243.286 122.68V117.68H208.726V122.68V127.68H243.286V122.68ZM208.726 122.68H213.726V117.04H208.726H203.726V122.68H208.726ZM208.726 117.04V122.04H243.286V117.04V112.04H208.726V117.04ZM217.606 124.56H212.606V129.52H217.606H222.606V124.56H217.606ZM217.606 129.52V134.52H241.686V129.52V124.52H217.606V129.52ZM241.686 129.52H236.686V135.16H241.686H246.686V129.52H241.686ZM241.686 135.16V130.16H210.726V135.16V140.16H241.686V135.16ZM210.726 135.16H215.726V124.56H210.726H205.726V135.16H210.726ZM210.726 124.56V129.56H217.606V124.56V119.56H210.726V124.56ZM254.522 123.8H249.522V128.8H254.522V123.8ZM258.522 115.44L261.531 119.433L261.543 119.425L261.554 119.416L258.522 115.44ZM254.082 111.2V116.2H259.082V111.2H254.082ZM247.122 111.2H242.122V116.2H247.122V111.2ZM264.962 117.84L261.914 113.877L261.899 113.888L261.885 113.899L264.962 117.84ZM261.122 123.8V128.8H266.122V123.8H261.122ZM254.522 123.8H259.522C259.522 122.256 259.736 121.536 259.933 121.128C260.116 120.746 260.481 120.224 261.531 119.433L258.522 115.44L255.513 111.447C253.643 112.856 252.008 114.534 250.921 116.792C249.848 119.024 249.522 121.384 249.522 123.8H254.522ZM258.522 115.44L261.554 119.416C263.596 117.858 267.162 115.251 267.162 110.52H262.162H257.162C257.162 110.42 257.183 110.248 257.255 110.061C257.32 109.89 257.382 109.828 257.33 109.892C257.268 109.97 257.117 110.136 256.793 110.42C256.47 110.703 256.053 111.035 255.49 111.464L258.522 115.44ZM262.162 110.52H267.162C267.162 108.227 266.281 105.929 264.32 104.302C262.477 102.773 260.221 102.28 258.202 102.28V107.28V112.28C258.704 112.28 258.427 112.407 257.935 111.998C257.68 111.786 257.461 111.501 257.319 111.179C257.182 110.867 257.162 110.623 257.162 110.52H262.162ZM258.202 107.28V102.28C255.626 102.28 253.25 103.219 251.528 105.015C249.856 106.759 249.082 109.018 249.082 111.2H254.082H259.082C259.082 111.342 259.028 111.641 258.747 111.935C258.606 112.081 258.449 112.181 258.311 112.237C258.175 112.293 258.122 112.28 258.202 112.28V107.28ZM254.082 111.2V106.2H247.122V111.2V116.2H254.082V111.2ZM247.122 111.2H252.122C252.122 108.571 254.059 106.12 258.162 106.12V101.12V96.12C249.305 96.12 242.122 102.309 242.122 111.2H247.122ZM258.162 101.12V106.12C260.681 106.12 262.096 106.83 262.822 107.487C263.508 108.108 264.002 109.055 264.002 110.52H269.002H274.002C274.002 106.545 272.536 102.792 269.533 100.073C266.568 97.3899 262.563 96.12 258.162 96.12V101.12ZM269.002 110.52H264.002C264.002 111.525 263.642 112.547 261.914 113.877L264.962 117.84L268.011 121.803C271.482 119.133 274.002 115.435 274.002 110.52H269.002ZM264.962 117.84L261.885 113.899C260.302 115.135 258.802 116.482 257.742 118.13C256.553 119.978 256.122 121.869 256.122 123.8H261.122H266.122C266.122 123.586 266.144 123.529 266.137 123.555C266.127 123.592 266.115 123.598 266.152 123.54C266.282 123.338 266.703 122.825 268.039 121.781L264.962 117.84ZM261.122 123.8V118.8H254.522V123.8V128.8H261.122V123.8ZM258.042 135.16V130.16C258.037 130.16 258.095 130.16 258.195 130.199C258.294 130.239 258.411 130.309 258.519 130.416C258.628 130.523 258.706 130.645 258.752 130.76C258.799 130.875 258.802 130.951 258.802 130.96H253.802H248.802C248.802 136.224 252.904 140.16 258.042 140.16V135.16ZM253.802 130.96H258.802C258.802 131.003 258.769 131.234 258.543 131.461C258.317 131.687 258.085 131.72 258.042 131.72V126.72V121.72C252.841 121.72 248.802 125.759 248.802 130.96H253.802ZM258.042 126.72V131.72C257.999 131.72 257.768 131.687 257.542 131.461C257.315 131.234 257.282 131.003 257.282 130.96H262.282H267.282C267.282 125.759 263.244 121.72 258.042 121.72V126.72ZM262.282 130.96H257.282C257.282 130.951 257.285 130.875 257.332 130.76C257.379 130.645 257.456 130.523 257.565 130.416C257.674 130.309 257.79 130.239 257.89 130.199C257.99 130.16 258.048 130.16 258.042 130.16V135.16V140.16C263.181 140.16 267.282 136.224 267.282 130.96H262.282Z" fill="white" mask="url(#path-8-outside-2_3402_248)"/>
<defs>
<linearGradient id="paint0_linear_3402_248" x1="253.5" y1="64" x2="253.5" y2="102" gradientUnits="userSpaceOnUse">
<stop stop-color="#FF7800"/>
<stop offset="1" stop-color="white"/>
</linearGradient>
<linearGradient id="paint1_linear_3402_248" x1="204.5" y1="29" x2="204.5" y2="76" gradientUnits="userSpaceOnUse">
<stop stop-color="#FF7800"/>
<stop offset="1" stop-color="white"/>
</linearGradient>
<linearGradient id="paint2_linear_3402_248" x1="20.5" y1="64" x2="20.5" y2="102" gradientUnits="userSpaceOnUse">
<stop stop-color="#FF7800"/>
<stop offset="1" stop-color="white"/>
</linearGradient>
<linearGradient id="paint3_linear_3402_248" x1="69.5" y1="29" x2="69.5" y2="76" gradientUnits="userSpaceOnUse">
<stop stop-color="#FF7800"/>
<stop offset="1" stop-color="white"/>
</linearGradient>
<linearGradient id="paint4_linear_3402_248" x1="137" y1="0" x2="137" y2="58" gradientUnits="userSpaceOnUse">
<stop stop-color="#FF7800"/>
<stop offset="1" stop-color="white"/>
</linearGradient>
</defs>
</svg>
