<svg width="20" height="20" viewBox="0 0 20 20" fill="none" xmlns="http://www.w3.org/2000/svg">
<path d="M8.68629 0.326896C8.77616 0.127901 8.97426 0 9.19261 0C10.1007 0 10.9733 0.354917 11.6181 0.989447C12.2631 1.62427 12.6272 2.48719 12.6272 3.38887V6.61107H17.5005C17.8567 6.60757 18.2098 6.68008 18.5355 6.82391C18.8621 6.96821 19.1538 7.18099 19.3898 7.44808C19.6258 7.71521 19.8005 8.03023 19.9012 8.37155C20.0019 8.71288 20.026 9.07189 19.9718 9.42352L18.6474 17.9234C18.5572 18.5084 18.2554 19.0402 17.8002 19.4209C17.346 19.8009 16.7693 20.0057 16.1761 19.9999H2.4749C1.82136 19.9999 1.19283 19.7445 0.728037 19.2871C0.262943 18.8293 0 18.2066 0 17.5554V10.9444C0 10.2932 0.262943 9.67048 0.728037 9.21277C1.19283 8.75536 1.82136 8.49995 2.4749 8.49995H4.99523L8.68629 0.326896Z" fill="#FF7800"/>
<mask id="mask0_3402_279" style="mask-type:alpha" maskUnits="userSpaceOnUse" x="0" y="0" width="20" height="20">
<path d="M8.68629 0.326896C8.77616 0.127901 8.97426 0 9.19261 0C10.1007 0 10.9733 0.354917 11.6181 0.989447C12.2631 1.62427 12.6272 2.48719 12.6272 3.38887V6.61107H17.5005C17.8567 6.60757 18.2098 6.68008 18.5355 6.82391C18.8621 6.96821 19.1538 7.18099 19.3898 7.44808C19.6258 7.71521 19.8005 8.03023 19.9012 8.37155C20.0019 8.71288 20.026 9.07189 19.9718 9.42352L18.6474 17.9234C18.5572 18.5084 18.2554 19.0402 17.8002 19.4209C17.346 19.8009 16.7693 20.0057 16.1761 19.9999H2.4749C1.82136 19.9999 1.19283 19.7445 0.728037 19.2871C0.262943 18.8293 0 18.2066 0 17.5554V10.9444C0 10.2932 0.262943 9.67048 0.728037 9.21277C1.19283 8.75536 1.82136 8.49995 2.4749 8.49995H4.99523L8.68629 0.326896Z" fill="#FF7800"/>
</mask>
<g mask="url(#mask0_3402_279)">
<path fill-rule="evenodd" clip-rule="evenodd" d="M6.1873 4.44446V20.2778H4.52063L4.52063 4.44446H6.1873Z" fill="white"/>
</g>
</svg>
