<svg width="237" height="44" viewBox="0 0 237 44" fill="none" xmlns="http://www.w3.org/2000/svg">
<rect width="237" height="44" rx="22" fill="url(#paint0_linear_3402_1247)"/>
<path d="M92.3235 25.9609V27.8418H77.6809V25.9609H83.8332V23.0781H78.8938V21.3203H81.0383V16.75H78.8235V14.957H91.093V16.75H88.843V21.3203H91.0227V23.0781H86.0657V25.9609H92.3235ZM83.2883 21.3203H86.6282V16.75H83.2883V21.3203ZM106.763 13.6387V25.1348H104.513V13.6387H106.763ZM107.185 27.543V29.3359H96.0406V23.9746H98.3081V27.543H107.185ZM97.9917 14.6582C100.453 14.6582 102.369 16.3457 102.369 18.6836C102.369 21.0742 100.453 22.7441 97.9917 22.7441C95.5308 22.7441 93.6148 21.0742 93.6148 18.6836C93.6148 16.3457 95.5308 14.6582 97.9917 14.6582ZM97.9917 16.6094C96.7437 16.5918 95.7945 17.3828 95.8121 18.6836C95.7945 20.0195 96.7437 20.793 97.9917 20.793C99.2046 20.793 100.154 20.0195 100.154 18.6836C100.154 17.3828 99.2046 16.5918 97.9917 16.6094ZM122.099 21.8828V23.6582H110.779V14.7988H121.976V16.6094H113.064V18.2969H121.607V20.0547H113.064V21.8828H122.099ZM123.699 25.9258V27.7539H109.056V25.9258H123.699ZM141.715 13.6211V17.2598H143.877V19.1055H141.715V22.9551H139.465V13.6211H141.715ZM131.731 14.5527V16.5918H135V14.5527H137.25V22.1641H129.498V14.5527H131.731ZM131.731 20.4062H135V18.332H131.731V20.4062ZM141.803 23.6758V25.4512H133.489V27.6484H142.102V29.4062H131.256V23.6758H141.803ZM158.159 13.6211V29.6172H155.891V13.6211H158.159ZM153.36 15.291C153.36 20.1426 151.655 24.168 145.942 26.875L144.764 25.082C148.895 23.1309 150.715 20.5996 151.075 17.0488H145.626V15.291H153.36Z" fill="white"/>
<defs>
<linearGradient id="paint0_linear_3402_1247" x1="0" y1="22" x2="237" y2="22" gradientUnits="userSpaceOnUse">
<stop stop-color="#FFCA37"/>
<stop offset="0.192308" stop-color="#FF7800"/>
</linearGradient>
</defs>
</svg>
