<svg width="247" height="111" viewBox="0 0 247 111" fill="none" xmlns="http://www.w3.org/2000/svg">
<rect y="46" width="247" height="65" rx="10" fill="white"/>
<circle cx="123.5" cy="39.5" r="39.5" fill="white"/>
<path d="M146.417 36.3916V38.5C146.414 43.4418 144.814 48.2503 141.855 52.2083C138.896 56.1664 134.737 59.0619 129.998 60.4631C125.259 61.8643 120.194 61.696 115.558 59.9834C110.923 58.2708 106.965 55.1056 104.275 50.9599C101.585 46.8142 100.308 41.9101 100.633 36.979C100.958 32.0479 102.869 27.3541 106.079 23.5974C109.29 19.8408 113.629 17.2227 118.45 16.1336C123.27 15.0446 128.313 15.5428 132.827 17.5541M146.417 20.1666L123.5 43.1062L116.625 36.2312" stroke="#FF7800" stroke-width="3" stroke-linecap="round" stroke-linejoin="round"/>
<path d="M63.6139 72.0615V85.3184H61.9733V72.0615H63.6139ZM56.4801 73.0283C58.4723 73.0283 59.9225 74.8447 59.9372 77.7012C59.9225 80.5869 58.4723 82.3887 56.4801 82.3887C54.4733 82.3887 53.0231 80.5869 53.0231 77.7012C53.0231 74.8447 54.4733 73.0283 56.4801 73.0283ZM56.4801 74.4932C55.3522 74.4932 54.5905 75.6797 54.5905 77.7012C54.5905 79.7373 55.3522 80.9238 56.4801 80.9238C57.5934 80.9238 58.3551 79.7373 58.3551 77.7012C58.3551 75.6797 57.5934 74.4932 56.4801 74.4932ZM72.6953 73.3066V82.0811H66.3965V73.3066H72.6953ZM68.0078 74.5811V80.7773H71.1133V74.5811H68.0078ZM76.709 72.0615V85.3184H75.0683V72.0615H76.709ZM92.9234 72.0615V75.1377H94.7691V76.4854H92.9234V79.7812H91.2974V72.0615H92.9234ZM84.5445 72.8379V74.6396H87.6353V72.8379H89.2467V79.0781H82.9332V72.8379H84.5445ZM84.5445 77.7891H87.6353V75.8994H84.5445V77.7891ZM93.0113 80.4258V81.7295H86.0094V83.8242H93.2603V85.1133H84.3834V80.4258H93.0113ZM107.644 78.9023V80.2061H95.5741V78.9023H107.644ZM106.282 83.7217V85.04H97.0683V81.1875H98.6942V83.7217H106.282ZM101.595 72.4863C104.48 72.4863 106.355 73.4971 106.37 75.167C106.355 76.8516 104.48 77.877 101.595 77.877C98.7089 77.877 96.8192 76.8516 96.8192 75.167C96.8192 73.4971 98.7089 72.4863 101.595 72.4863ZM101.595 73.79C99.6757 73.79 98.5038 74.2881 98.5184 75.167C98.5038 76.0605 99.6757 76.5586 101.595 76.5439C103.528 76.5586 104.685 76.0605 104.685 75.167C104.685 74.2881 103.528 73.79 101.595 73.79ZM124.459 82.4033V83.7656H112.36V82.4033H117.56V79.7959H113.4V78.5068H115.26V74.5518H113.356V73.2334H123.405V74.5518H121.471V78.5068H123.361V79.7959H119.171V82.4033H124.459ZM116.886 78.5068H119.86V74.5518H116.886V78.5068ZM136.485 72.0762V81.6416H134.845V72.0762H136.485ZM136.851 83.7217V85.04H127.725V80.6748H129.366V83.7217H136.851ZM129.263 72.9404C131.27 72.9404 132.823 74.332 132.823 76.251C132.823 78.2139 131.27 79.5762 129.263 79.5762C127.242 79.5762 125.689 78.2139 125.689 76.251C125.689 74.332 127.242 72.9404 129.263 72.9404ZM129.263 74.3613C128.136 74.3613 127.271 75.1084 127.286 76.251C127.271 77.4229 128.136 78.1553 129.263 78.1553C130.362 78.1553 131.226 77.4229 131.226 76.251C131.226 75.1084 130.362 74.3613 129.263 74.3613ZM149.317 79.0049V80.2939H140.029V73.1016H149.199V74.4199H141.685V76.0166H148.892V77.291H141.685V79.0049H149.317ZM150.65 82.3594V83.6924H138.55V82.3594H150.65ZM162.675 72.0615V79.166H161.035V72.0615H162.675ZM155.527 79.7812V81.1436H161.049V79.7812H162.675V85.1426H153.915V79.7812H155.527ZM155.527 83.8242H161.049V82.418H155.527V83.8242ZM155.454 72.6475C157.49 72.6328 159.013 73.9072 159.013 75.7529C159.013 77.5547 157.49 78.8291 155.454 78.8291C153.403 78.8291 151.879 77.5547 151.879 75.7529C151.879 73.9072 153.403 72.6328 155.454 72.6475ZM155.454 74.0098C154.296 74.0098 153.461 74.6836 153.476 75.7529C153.461 76.8076 154.296 77.4814 155.454 77.4961C156.596 77.4814 157.416 76.8076 157.416 75.7529C157.416 74.6836 156.596 74.0098 155.454 74.0098ZM175.785 72.0615V85.3037H174.174V72.0615H175.785ZM167.113 73.3506V80.5869C168.973 80.5576 170.951 80.3892 172.987 79.9863L173.192 81.3486C170.863 81.832 168.695 81.9785 166.644 81.9785H165.502V73.3506H167.113ZM188.206 72.0615V77.0859H190.242V78.4189H188.206V85.3184H186.58V72.0615H188.206ZM184.573 73.3213V74.6396H180.003V80.7188C182.061 80.7188 183.687 80.6162 185.511 80.2939L185.701 81.6709C183.65 82.0225 181.863 82.0811 179.476 82.0811H178.377V73.3213H184.573ZM193.655 73.3945L193.493 80.8799H191.838L191.662 73.3945H193.655ZM192.673 84.1172C192.043 84.1172 191.531 83.6045 191.531 82.9746C191.531 82.3594 192.043 81.8467 192.673 81.8467C193.274 81.8467 193.801 82.3594 193.801 82.9746C193.801 83.6045 193.274 84.1172 192.673 84.1172Z" fill="black"/>
</svg>
