<svg width="247" height="111" viewBox="0 0 247 111" fill="none" xmlns="http://www.w3.org/2000/svg">
<rect y="46" width="247" height="65" rx="10" fill="white"/>
<circle cx="123.5" cy="39.5" r="39.5" fill="white"/>
<path d="M146.417 36.3916V38.5C146.414 43.4418 144.814 48.2503 141.855 52.2083C138.896 56.1664 134.737 59.0619 129.998 60.4631C125.259 61.8643 120.194 61.696 115.558 59.9834C110.923 58.2708 106.965 55.1056 104.275 50.9599C101.585 46.8142 100.308 41.9101 100.633 36.979C100.958 32.0479 102.869 27.3541 106.079 23.5974C109.29 19.8408 113.629 17.2227 118.45 16.1336C123.27 15.0446 128.313 15.5428 132.827 17.5541M146.417 20.1666L123.5 43.1062L116.625 36.2312" stroke="#FF7800" stroke-width="3" stroke-linecap="round" stroke-linejoin="round"/>
<path d="M59.9958 82.4033V83.7656H47.8962V82.4033H53.0964V79.7959H48.9362V78.5068H50.7965V74.5518H48.8923V73.2334H58.9411V74.5518H57.0075V78.5068H58.8971V79.7959H54.7077V82.4033H59.9958ZM52.4225 78.5068H55.3962V74.5518H52.4225V78.5068ZM72.0215 72.0762V81.6416H70.3808V72.0762H72.0215ZM72.3877 83.7217V85.04H63.2617V80.6748H64.9023V83.7217H72.3877ZM64.7998 72.9404C66.8066 72.9404 68.3593 74.332 68.3593 76.251C68.3593 78.2139 66.8066 79.5762 64.7998 79.5762C62.7783 79.5762 61.2256 78.2139 61.2256 76.251C61.2256 74.332 62.7783 72.9404 64.7998 72.9404ZM64.7998 74.3613C63.6718 74.3613 62.8076 75.1084 62.8222 76.251C62.8076 77.4229 63.6718 78.1553 64.7998 78.1553C65.8984 78.1553 66.7627 77.4229 66.7627 76.251C66.7627 75.1084 65.8984 74.3613 64.7998 74.3613ZM84.8528 79.0049V80.2939H75.5657V73.1016H84.7356V74.4199H77.221V76.0166H84.428V77.291H77.221V79.0049H84.8528ZM86.1858 82.3594V83.6924H74.0862V82.3594H86.1858ZM97.5523 72.0615V77.2324H99.5152V78.5947H97.5523V85.2744H95.9263V72.0615H97.5523ZM94.0513 73.4385C94.0513 77.335 92.44 80.748 88.0308 82.916L87.108 81.6562C90.3306 80.0522 92.0738 77.7964 92.4107 74.7861H87.8258V73.4385H94.0513ZM108.962 75.8262C108.962 77.9941 110.237 80.2793 112.375 81.1729L111.482 82.4619C109.914 81.7881 108.772 80.3965 108.171 78.7119C107.556 80.5283 106.399 82.0518 104.846 82.7842L103.908 81.5098C106.003 80.543 107.307 78.082 107.307 75.8262V74.7129H104.392V73.3652H111.862V74.7129H108.962V75.8262ZM114.983 72.0615V85.3037H113.342V72.0615H114.983ZM120.153 79.6055V81.1289H126.027V79.6055H127.638V85.1426H118.556V79.6055H120.153ZM120.153 83.8242H126.027V82.3887H120.153V83.8242ZM127.682 72.6328V73.6582C127.682 74.6616 127.682 75.7676 127.36 77.3203H129.162V78.624H117.062V77.3203H125.749C126.027 75.9214 126.056 74.8667 126.056 73.9365H118.556V72.6328H127.682ZM138.038 77.5547V78.873H135.357V81.1875C136.514 81.1362 137.672 81.0557 138.77 80.9385L138.902 82.1396C135.987 82.5791 132.926 82.6084 130.421 82.6084L130.216 81.2607C131.307 81.2681 132.501 81.2681 133.731 81.2314V78.873H131.138V73.2773H137.979V74.5664H132.75V77.5547H138.038ZM141.187 72.0615V85.3184H139.561V72.0615H141.187ZM148.101 80.6455C148.086 81.7661 148.599 82.9233 149.741 83.6631C150.884 82.8647 151.397 81.6416 151.411 80.6455V80.0303H153.008V80.6455C153.008 82.0225 153.814 83.3555 155.586 83.9121L154.766 85.1279C153.484 84.6738 152.634 83.8242 152.188 82.7549C151.748 83.8096 150.957 84.7471 149.741 85.2305C148.511 84.769 147.727 83.8682 147.295 82.7988C146.826 83.8242 145.984 84.6665 144.761 85.1279L143.97 83.9121C145.684 83.3262 146.504 81.9492 146.519 80.6455V80.0303H148.101V80.6455ZM146.929 72.7646C148.621 72.7646 149.983 73.7607 150.327 75.2256H152.715V72.0615H154.341V79.5322H152.715V76.5439H150.342C150.027 78.0527 148.65 79.0635 146.929 79.0635C144.922 79.0635 143.428 77.7598 143.428 75.9141C143.428 74.083 144.922 72.7646 146.929 72.7646ZM146.929 74.127C145.816 74.127 144.995 74.8301 144.995 75.9141C144.995 76.9834 145.816 77.7158 146.929 77.7158C148.013 77.7158 148.833 76.9834 148.833 75.9141C148.833 74.8301 148.013 74.127 146.929 74.127ZM159.409 80.001V81.2607H165.239V80.001H166.865V85.1426H157.797V80.001H159.409ZM159.409 83.8535H165.239V82.5059H159.409V83.8535ZM168.417 77.9209V79.2539H156.347V77.9209H168.417ZM163.217 72.7061C163.217 74.127 165.034 75.6211 167.773 75.9434L167.202 77.2324C164.982 76.9321 163.232 75.9507 162.382 74.6104C161.525 75.958 159.767 76.9321 157.563 77.2324L156.962 75.9434C159.731 75.6064 161.533 74.1709 161.547 72.7061V72.208H163.217V72.7061ZM180.487 72.0615V85.3037H178.876V72.0615H180.487ZM171.815 73.3506V80.5869C173.676 80.5576 175.653 80.3892 177.689 79.9863L177.894 81.3486C175.565 81.832 173.397 81.9785 171.346 81.9785H170.204V73.3506H171.815ZM192.908 72.0615V77.0859H194.944V78.4189H192.908V85.3184H191.282V72.0615H192.908ZM189.275 73.3213V74.6396H184.705V80.7188C186.763 80.7188 188.389 80.6162 190.213 80.2939L190.403 81.6709C188.353 82.0225 186.565 82.0811 184.178 82.0811H183.079V73.3213H189.275ZM198.357 73.3945L198.196 80.8799H196.54L196.365 73.3945H198.357ZM197.375 84.1172C196.745 84.1172 196.233 83.6045 196.233 82.9746C196.233 82.3594 196.745 81.8467 197.375 81.8467C197.976 81.8467 198.503 82.3594 198.503 82.9746C198.503 83.6045 197.976 84.1172 197.375 84.1172Z" fill="black"/>
</svg>
